<svg width="64" height="64" viewBox="0 0 64 64" fill="none" xmlns="http://www.w3.org/2000/svg">
<g clip-path="url(#clip0_7184_49682)">
<path d="M60.3605 27.2705C59.3755 26.5443 58.1345 25.6371 57.9842 25.0445C58.0473 23.8972 58.375 22.7802 58.9414 21.7806C59.8096 19.7883 60.7055 17.7237 59.7094 16.0069C58.7133 14.2901 56.4483 14.0119 54.2696 13.7809C53.1403 13.7733 52.0278 13.5078 51.0168 13.0046C50.5128 11.9901 50.2482 10.8735 50.2432 9.7407C49.9984 7.56202 49.7451 5.3082 48.0172 4.3009C46.2893 3.29359 44.2219 4.17568 42.2297 5.05491C41.229 5.6211 40.1111 5.94861 38.9631 6.01213C38.3621 5.85079 37.4578 4.62084 36.7371 3.63584C35.4738 1.93296 34.0519 0.00195312 31.9984 0.00195312C29.945 0.00195312 28.5231 1.93296 27.2682 3.63584C26.5392 4.62358 25.6348 5.86187 25.0421 6.01486C23.8951 5.94574 22.7784 5.61862 21.7755 5.05765C19.7721 4.17555 17.7076 3.29633 15.9963 4.28694C14.2851 5.27755 13.9986 7.54806 13.7536 9.74057C13.7457 10.8694 13.4812 11.9817 12.98 12.9933C11.971 13.4894 10.8628 13.75 9.73849 13.7557C7.55706 14.0005 5.30038 14.2538 4.29594 15.9817C3.29151 17.7097 4.17373 19.7745 5.05295 21.7695C5.62123 22.7724 5.94887 23.8934 6.01017 25.0445C5.84883 25.6455 4.61889 26.5526 3.63389 27.2705C1.931 28.5226 0 29.9473 0 32.0008C0 34.0543 1.931 35.4789 3.63675 36.7311C4.62176 37.4573 5.86279 38.3644 6.01304 38.9571C5.94991 40.1043 5.62228 41.2213 5.05582 42.2209C4.18769 44.2132 3.29177 46.2778 4.28786 47.9946C5.28394 49.7115 7.54898 49.9897 9.72766 50.2207C10.8569 50.2282 11.9695 50.4938 12.9804 50.997C13.4844 52.0115 13.7491 53.1281 13.754 54.2609C13.9988 56.4395 14.2521 58.6934 15.98 59.7007C17.708 60.708 19.7587 59.8008 21.7537 58.9327C22.7644 58.3728 23.8889 58.0493 25.0426 57.9867C25.6437 58.148 26.5479 59.378 27.2687 60.363C28.5235 62.0659 29.9455 63.9969 31.999 63.9969C34.0524 63.9969 35.4742 62.0659 36.7292 60.363C37.4582 59.3752 38.3626 58.1369 38.9553 57.984C40.103 58.0489 41.2206 58.3763 42.2219 58.9412C44.2142 59.8093 46.2787 60.6997 47.9927 59.7119C49.7067 58.7241 49.9905 56.4508 50.2354 54.2693C50.2434 53.1405 50.5079 52.0282 51.009 51.0166C52.0198 50.5165 53.1312 50.2529 54.2589 50.2459C56.4403 50.001 58.697 49.7477 59.7014 48.0198C60.7059 46.2919 59.7989 44.2412 58.9335 42.2461C58.367 41.2382 58.0432 40.112 57.9875 38.9572C58.1488 38.3562 59.3788 37.4491 60.3638 36.7312C62.0666 35.4763 64.0005 34.0516 64.0005 32.0009C64.0005 29.9502 62.0661 28.5226 60.3605 27.2705Z" fill="#0DA96C"/>
<path d="M23.6528 38.9574C23.215 38.9574 22.8025 38.7512 22.5399 38.4009L16.6966 30.6099V37.5661C16.6966 38.3345 16.0737 38.9574 15.3053 38.9574C14.537 38.9574 13.9141 38.3345 13.9141 37.5661V26.4362C13.9141 25.6679 14.537 25.0449 15.3053 25.0449C15.7432 25.0449 16.1556 25.2511 16.4183 25.6015L22.2615 33.3924V26.4362C22.2615 25.6679 22.8845 25.0449 23.6528 25.0449C24.4212 25.0449 25.0441 25.6679 25.0441 26.4362V37.5661C25.0437 38.1647 24.6604 38.6959 24.0925 38.885C23.9508 38.933 23.8024 38.9574 23.6528 38.9574Z" fill="#FAFAFA"/>
<path d="M34.7844 38.9574H29.2194C28.4511 38.9574 27.8281 38.3345 27.8281 37.5661V26.4362C27.8281 25.6679 28.4511 25.0449 29.2194 25.0449H34.7844C35.5528 25.0449 36.1757 25.6679 36.1757 26.4362C36.1757 27.2046 35.5528 27.8275 34.7844 27.8275H30.6107V36.175H34.7844C35.5528 36.175 36.1757 36.7979 36.1757 37.5662C36.1757 38.3346 35.5528 38.9574 34.7844 38.9574Z" fill="#FAFAFA"/>
<path d="M34.7844 33.3919H29.2194C28.4511 33.3919 27.8281 32.769 27.8281 32.0007C27.8281 31.2323 28.4511 30.6094 29.2194 30.6094H34.7844C35.5528 30.6094 36.1757 31.2323 36.1757 32.0007C36.1757 32.769 35.5528 33.3919 34.7844 33.3919Z" fill="#FAFAFA"/>
<path d="M48.6917 38.9567C48.0921 38.9575 47.5594 38.574 47.37 38.0051L45.9092 33.617L44.4484 38.0051C44.2706 38.6054 43.6983 39.0006 43.0738 38.9539C42.4559 38.9305 41.9276 38.502 41.7772 37.9022L38.9948 26.7723C38.8088 26.0262 39.263 25.2706 40.009 25.0846C40.7551 24.8986 41.5106 25.3528 41.6966 26.0989L43.3188 32.5932L44.5903 28.7784C44.921 28.0492 45.7801 27.7261 46.5093 28.0567C46.8294 28.2019 47.0858 28.4583 47.231 28.7784L48.5026 32.5932L50.1247 26.0989C50.3107 25.3528 51.0661 24.8986 51.8123 25.0846C52.5584 25.2706 53.0125 26.0261 52.8265 26.7723L50.0441 37.9022C49.8937 38.502 49.3653 38.9305 48.7475 38.9539L48.6917 38.9567Z" fill="#FAFAFA"/>
</g>
<defs>
<clipPath id="clip0_7184_49682">
<rect width="64" height="64" fill="white"/>
</clipPath>
</defs>
</svg>
