<?xml version="1.0" encoding="UTF-8"?><svg id="b" xmlns="http://www.w3.org/2000/svg" width="24" height="24" viewBox="0 0 24 24"><g id="c"><rect width="24" height="24" style="fill:none;"/><g id="d"><path d="m2,5.6v12.8c0,2,1.6,3.6,3.6,3.6h12.8c2,0,3.6-1.6,3.6-3.6V5.6c0-2-1.6-3.6-3.6-3.6H5.6c-2,0-3.6,1.6-3.6,3.6" style="fill:#ffca05;"/><rect x="7.1" y="15.6" width="9.7" height="1.8"/><polygon points="16.9 6.3 14.4 10.5 16.9 14.6 16.9 6.3"/><rect x="14.4" y="6.3" width="2.4" height="8.2" style="fill:none;"/><polygon points="16.9 6.3 13.6 6.3 12 9.1 10.4 6.3 7.1 6.3 9.6 10.4 12 14.6 14.4 10.5 14.4 10.5 16.9 6.4 16.9 6.3"/><polygon points="7.1 6.3 7.1 14.6 9.6 10.4 7.1 6.3" style="isolation:isolate; opacity:.7;"/></g></g></svg>