<svg width="46" height="46" viewBox="0 0 46 46" fill="none" xmlns="http://www.w3.org/2000/svg">
<path d="M27.4165 45.5003H22.2178C21.2518 45.5003 20.4678 44.7163 20.4678 43.7503C20.4678 42.7843 21.2518 42.0003 22.2178 42.0003H27.4165C31.5978 42.0003 34.9998 38.5983 34.9998 34.417C34.9998 33.451 35.7838 32.667 36.7498 32.667C37.7158 32.667 38.4998 33.451 38.4998 34.417C38.4998 40.528 33.5275 45.5003 27.4165 45.5003Z" fill="#FFB502"/>
<path d="M38.5 16.821V15.75C38.5 7.0653 31.4347 0 22.75 0C14.0653 0 7 7.0653 7 15.75V16.821C2.961 18.0763 0 21.8027 0 26.25C0 31.717 4.44967 36.1667 9.9167 36.1667H11.0833C13.335 36.1667 15.1667 34.335 15.1667 32.0833V20.4167C15.1667 18.165 13.335 16.3333 11.0833 16.3333H10.5V15.75C10.5 8.995 15.995 3.5 22.75 3.5C29.505 3.5 35 8.995 35 15.75V16.3333H34.4167C32.165 16.3333 30.3333 18.165 30.3333 20.4167V32.0833C30.3333 34.335 32.165 36.1667 34.4167 36.1667H35.5833C41.0503 36.1667 45.5 31.717 45.5 26.25C45.5 21.805 42.539 18.0763 38.5 16.821ZM11.6667 20.4167V32.0833C11.6667 32.4053 11.4053 32.6667 11.0833 32.6667H9.9167C6.377 32.6667 3.5 29.7897 3.5 26.25C3.5 22.7103 6.377 19.8333 9.9167 19.8333H11.0833C11.4053 19.8333 11.6667 20.0947 11.6667 20.4167ZM35.5833 32.6667H34.4167C34.0947 32.6667 33.8333 32.4053 33.8333 32.0833V20.4167C33.8333 20.0947 34.0947 19.8333 34.4167 19.8333H35.5833C39.123 19.8333 42 22.7103 42 26.25C42 29.7897 39.123 32.6667 35.5833 32.6667Z" fill="#112D55"/>
</svg>
