<svg width="571" height="141" viewBox="0 0 571 141" fill="none" xmlns="http://www.w3.org/2000/svg">
<path d="M118.748 75.285C120.726 75.285 122.298 75.699 123.463 76.527C124.628 77.3397 125.364 78.4743 125.671 79.931H125.763C125.947 78.3823 126.468 77.2247 127.327 76.458C128.186 75.676 129.366 75.285 130.869 75.285C132.786 75.285 134.196 75.8753 135.101 77.056C136.021 78.2367 136.481 80.0077 136.481 82.369V94.444C136.481 97.296 135.906 99.435 134.756 100.861C133.606 102.287 131.843 103 129.466 103H115.712C114.179 103 113.412 103.713 113.412 105.139C113.412 106.565 114.179 107.278 115.712 107.278H136.32L135.952 109.854H115.344C113.642 109.854 112.362 109.455 111.503 108.658C110.644 107.861 110.215 106.695 110.215 105.162C110.215 103.598 110.644 102.425 111.503 101.643C112.362 100.846 113.642 100.447 115.344 100.447H128.707C130.271 100.447 131.421 99.9563 132.157 98.975C132.908 97.9783 133.284 96.468 133.284 94.444V82.346C133.284 80.966 133.054 79.9387 132.594 79.264C132.149 78.5893 131.413 78.252 130.386 78.252C129.359 78.252 128.615 78.5893 128.155 79.264C127.71 79.9387 127.48 80.9583 127.465 82.323L127.373 97.089H124.337L124.268 83.611C124.253 81.8017 123.8 80.437 122.911 79.517C122.037 78.597 120.718 78.137 118.955 78.137C117.023 78.137 115.597 78.6813 114.677 79.77C113.772 80.8587 113.32 82.5147 113.32 84.738V85.037H113.642L113.366 86.302V92.857C113.366 93.8843 113.542 94.651 113.895 95.157C114.263 95.663 114.815 95.916 115.551 95.916C116.302 95.916 116.847 95.663 117.184 95.157C117.537 94.651 117.713 93.8843 117.713 92.857V88.05C117.713 87.1147 117.544 86.417 117.207 85.957C116.87 85.4817 116.356 85.244 115.666 85.244C115.114 85.244 114.639 85.3973 114.24 85.704C113.857 86.0107 113.558 86.463 113.343 87.061L113.159 86.049C113.374 84.9297 113.78 84.071 114.378 83.473C114.991 82.8597 115.842 82.553 116.931 82.553C118.188 82.553 119.131 82.9747 119.76 83.818C120.404 84.646 120.726 85.9187 120.726 87.636V92.765C120.726 94.6357 120.304 96.0693 119.461 97.066C118.633 98.0473 117.337 98.538 115.574 98.538C113.826 98.538 112.523 98.0473 111.664 97.066C110.805 96.0693 110.376 94.6357 110.376 92.765V84.83C110.376 81.6713 111.066 79.2947 112.446 77.7C113.841 76.09 115.942 75.285 118.748 75.285ZM150.38 85.175H153.577V102.931H150.38V85.175ZM140.858 82.898C140.858 80.3527 141.326 78.4513 142.261 77.194C143.212 75.9213 144.684 75.285 146.677 75.285C148.241 75.285 149.453 75.676 150.311 76.458C151.185 77.2247 151.73 78.344 151.944 79.816L152.059 88.142H150.38V82.875C150.38 79.8543 149.322 78.344 147.206 78.344C145.121 78.344 144.078 79.8543 144.078 82.875V94.099C144.078 96.077 144.232 97.8173 144.538 99.32C144.845 100.823 145.297 102.049 145.895 103H142.606C142.024 102.065 141.587 100.838 141.295 99.32C141.004 97.7867 140.858 96.0387 140.858 94.076V82.898ZM153.577 88.142L150.794 87.222L150.909 79.816H152.036C152.251 78.344 152.788 77.2247 153.646 76.458C154.52 75.676 155.732 75.285 157.28 75.285C159.289 75.285 160.761 75.9213 161.696 77.194C162.632 78.4513 163.099 80.3527 163.099 82.898V94.076C163.099 96.0387 162.961 97.7867 162.685 99.32C162.409 100.838 161.965 102.065 161.351 103H158.062C158.645 102.049 159.09 100.823 159.396 99.32C159.718 97.8173 159.879 96.077 159.879 94.099V82.875C159.879 79.8543 158.837 78.344 156.751 78.344C155.663 78.344 154.858 78.7197 154.336 79.471C153.83 80.207 153.577 81.3417 153.577 82.875V88.142ZM159.587 71.536C159.587 69.5887 160.101 68.086 161.128 67.028C162.155 65.97 163.597 65.441 165.452 65.441C167.353 65.441 168.802 65.97 169.799 67.028C170.811 68.0707 171.317 69.6117 171.317 71.651V103H168.12V71.628C168.12 70.4627 167.898 69.5963 167.453 69.029C167.008 68.4617 166.341 68.178 165.452 68.178C164.593 68.178 163.934 68.4617 163.474 69.029C163.014 69.581 162.784 70.409 162.784 71.513V73.928H159.587V71.536ZM186.962 75.86C186.87 77.5313 186.785 79.2563 186.709 81.035C186.632 82.7983 186.555 84.5617 186.479 86.325C186.402 88.0883 186.333 89.798 186.272 91.454C186.21 93.0947 186.149 94.6357 186.088 96.077C186.042 97.5183 186.003 98.814 185.973 99.964C185.957 101.099 185.95 102.026 185.95 102.747C185.95 104.173 186.256 105.208 186.87 105.852C187.483 106.511 188.349 106.841 189.469 106.841C189.959 106.841 190.412 106.81 190.826 106.749C191.24 106.688 191.669 106.603 192.114 106.496L191.769 109.164C191.247 109.287 190.772 109.379 190.343 109.44C189.929 109.517 189.476 109.555 188.986 109.555C187.544 109.555 186.364 109.287 185.444 108.75C184.524 108.229 183.841 107.47 183.397 106.473C182.967 105.476 182.753 104.288 182.753 102.908C182.753 102.187 182.768 101.252 182.799 100.102C182.829 98.952 182.868 97.6487 182.914 96.192C182.975 94.7353 183.036 93.179 183.098 91.523C183.174 89.867 183.251 88.1497 183.328 86.371C183.42 84.5923 183.504 82.8213 183.581 81.058C183.673 79.2793 183.757 77.5467 183.834 75.86H186.962ZM197.256 84.761C199.265 84.761 200.76 85.3513 201.741 86.532C202.722 87.7127 203.213 89.4453 203.213 91.73V96.491C203.213 97.9323 203.06 99.1973 202.753 100.286C202.462 101.375 202.002 102.279 201.373 103H198.866V102.793C199.249 102.103 199.541 101.244 199.74 100.217C199.939 99.1897 200.039 98.0013 200.039 96.652V91.707C200.039 90.373 199.809 89.3687 199.349 88.694C198.889 88.004 198.184 87.659 197.233 87.659C196.298 87.659 195.6 88.004 195.14 88.694C194.695 89.3687 194.473 90.373 194.473 91.707V96.652C194.473 98.078 194.565 99.32 194.749 100.378C194.933 101.436 195.186 102.31 195.508 103H192.334C191.981 102.279 191.721 101.39 191.552 100.332C191.383 99.274 191.299 98.032 191.299 96.606V91.73C191.299 89.4453 191.79 87.7127 192.771 86.532C193.752 85.3513 195.247 84.761 197.256 84.761ZM208.986 75.86H212.206V103H208.986V75.86ZM201.787 100.401H211.723V103H198.889L201.787 100.401ZM209.967 71.904V70.869C209.967 69.1057 210.427 67.764 211.347 66.844C212.252 65.9087 213.563 65.441 215.28 65.441C217.059 65.441 218.416 65.9163 219.351 66.867C220.287 67.8177 220.754 69.213 220.754 71.053V103H217.557V73.882L217.649 73.422V70.892C217.649 69.9567 217.458 69.2513 217.074 68.776C216.691 68.3007 216.101 68.063 215.303 68.063C214.552 68.063 213.985 68.293 213.601 68.753C213.203 69.1977 213.003 69.8647 213.003 70.754V71.697C213.003 72.5863 213.187 73.261 213.555 73.721C213.923 74.181 214.475 74.411 215.211 74.411C215.809 74.411 216.308 74.2807 216.706 74.02C217.105 73.7593 217.45 73.4373 217.741 73.054L217.994 74.825H217.465C217.143 75.469 216.706 75.952 216.154 76.274C215.618 76.596 214.951 76.757 214.153 76.757C212.789 76.757 211.754 76.3507 211.048 75.538C210.328 74.71 209.967 73.4987 209.967 71.904ZM227.15 100.424H242.721L242.698 103H225.931L227.15 100.424ZM234.372 78.114C232.364 78.114 230.899 78.7197 229.979 79.931C229.075 81.127 228.622 82.99 228.622 85.52V103H225.563V85.612C225.563 82.208 226.284 79.6397 227.725 77.907C229.167 76.159 231.382 75.285 234.372 75.285C237.378 75.285 239.601 76.159 241.042 77.907C242.484 79.6397 243.204 82.208 243.204 85.612V103H240.122V85.52C240.122 83.036 239.655 81.1807 238.719 79.954C237.799 78.7273 236.35 78.114 234.372 78.114ZM236.488 86.486V87.222C236.488 89.108 236.335 90.8867 236.028 92.558C235.722 94.214 235.277 95.7397 234.694 97.135C234.112 98.5303 233.399 99.803 232.555 100.953L229.565 100.516C230.409 99.3047 231.114 98.0167 231.681 96.652C232.249 95.2873 232.678 93.823 232.969 92.259C233.261 90.695 233.406 89.0007 233.406 87.176V86.486C233.406 84.8607 233.153 83.6647 232.647 82.898C232.157 82.1313 231.39 81.748 230.347 81.748C230.041 81.748 229.711 81.794 229.358 81.886C229.021 81.9627 228.668 82.116 228.3 82.346L229.036 79.954C229.358 79.816 229.726 79.701 230.14 79.609C230.554 79.517 230.922 79.471 231.244 79.471C233.008 79.471 234.319 80.0537 235.177 81.219C236.051 82.3843 236.488 84.14 236.488 86.486ZM239.907 71.536C239.907 69.5887 240.421 68.086 241.448 67.028C242.476 65.97 243.917 65.441 245.772 65.441C247.674 65.441 249.123 65.97 250.119 67.028C251.131 68.0707 251.637 69.6117 251.637 71.651V103H248.44V71.628C248.44 70.4627 248.218 69.5963 247.773 69.029C247.329 68.4617 246.662 68.178 245.772 68.178C244.914 68.178 244.254 68.4617 243.794 69.029C243.334 69.581 243.104 70.409 243.104 71.513V73.928H239.907V71.536ZM269.81 99.665C270.76 99.113 271.412 98.2773 271.765 97.158C272.133 96.0387 272.363 94.858 272.455 93.616C272.531 92.4353 272.608 91.1473 272.685 89.752C272.761 88.3567 272.823 86.9767 272.869 85.612C272.915 84.2473 272.938 83.0207 272.938 81.932C272.938 80.644 272.715 79.6933 272.271 79.08C271.841 78.4667 271.159 78.16 270.224 78.16C269.488 78.16 268.874 78.3747 268.384 78.804C267.893 79.218 267.556 79.8083 267.372 80.575L266.061 78.413H266.774C267.034 77.4623 267.517 76.7033 268.223 76.136C268.943 75.5687 269.917 75.285 271.144 75.285C272.83 75.285 274.08 75.8293 274.893 76.918C275.705 77.9913 276.112 79.609 276.112 81.771C276.112 82.921 276.089 84.1707 276.043 85.52C275.997 86.854 275.935 88.211 275.859 89.591C275.782 90.9557 275.698 92.259 275.606 93.501C275.498 95.019 275.184 96.4373 274.663 97.756C274.157 99.0747 273.313 100.14 272.133 100.953L271.029 101.735C270.507 102.21 269.779 102.632 268.844 103C267.908 103.353 266.758 103.529 265.394 103.529C262.342 103.529 260.058 102.663 258.54 100.93C257.022 99.182 256.263 96.5447 256.263 93.018V81.725C256.263 79.6397 256.73 78.045 257.666 76.941C258.616 75.837 259.996 75.285 261.806 75.285C263.262 75.285 264.397 75.6147 265.21 76.274C266.038 76.918 266.582 77.838 266.843 79.034L267.326 79.862C267.387 80.1687 267.425 80.483 267.441 80.805C267.471 81.1117 267.494 81.4567 267.51 81.84L267.901 92.972C267.962 94.5667 268.2 95.939 268.614 97.089C269.028 98.2237 269.718 99.0823 270.684 99.665L271.673 100.079C272.071 100.324 272.524 100.516 273.03 100.654C273.536 100.792 274.095 100.861 274.709 100.861C276.702 100.861 278.182 100.217 279.148 98.929C280.129 97.641 280.62 95.6783 280.62 93.041V84.83C280.62 82.806 280.443 81.0427 280.091 79.54C279.753 78.022 279.27 76.803 278.642 75.883H281.862C282.506 76.849 282.989 78.0987 283.311 79.632C283.648 81.15 283.817 82.8903 283.817 84.853V93.018C283.817 96.5447 283.104 99.182 281.678 100.93C280.252 102.663 278.067 103.529 275.123 103.529C273.773 103.529 272.623 103.353 271.673 103C270.737 102.632 270.001 102.21 269.465 101.735L268.361 100.976C267.149 100.194 266.26 99.136 265.693 97.802C265.141 96.4527 264.826 94.812 264.75 92.88L264.336 81.771C264.305 80.6363 264.106 79.7547 263.738 79.126C263.385 78.482 262.772 78.16 261.898 78.16C261.054 78.16 260.433 78.459 260.035 79.057C259.651 79.6397 259.46 80.5137 259.46 81.679V93.041C259.46 95.6783 259.981 97.641 261.024 98.929C262.066 100.217 263.661 100.861 265.808 100.861C266.39 100.861 266.935 100.792 267.441 100.654C267.962 100.516 268.414 100.324 268.798 100.079L269.81 99.665ZM295.82 91.201C295.82 89.959 295.613 89.0237 295.199 88.395C294.801 87.7663 294.172 87.452 293.313 87.452C292.47 87.452 291.841 87.7663 291.427 88.395C291.013 89.0237 290.806 89.959 290.806 91.201V96.79C290.806 98.032 291.013 98.9673 291.427 99.596C291.841 100.225 292.47 100.539 293.313 100.539C294.172 100.539 294.801 100.225 295.199 99.596C295.613 98.9673 295.82 98.032 295.82 96.79V91.201ZM287.678 91.247C287.678 89.0697 288.146 87.429 289.081 86.325C290.017 85.2057 291.427 84.646 293.313 84.646C295.199 84.646 296.61 85.2057 297.545 86.325C298.481 87.429 298.948 89.0697 298.948 91.247V96.744C298.948 98.9213 298.481 100.57 297.545 101.689C296.61 102.808 295.199 103.368 293.313 103.368C291.427 103.368 290.017 102.808 289.081 101.689C288.146 100.57 287.678 98.9213 287.678 96.744V91.247ZM311.379 100.424H326.95L326.927 103H310.16L311.379 100.424ZM318.601 78.114C316.592 78.114 315.128 78.7197 314.208 79.931C313.303 81.127 312.851 82.99 312.851 85.52V103H309.792V85.612C309.792 82.208 310.513 79.6397 311.954 77.907C313.395 76.159 315.611 75.285 318.601 75.285C321.606 75.285 323.83 76.159 325.271 77.907C326.712 79.6397 327.433 82.208 327.433 85.612V103H324.351V85.52C324.351 83.036 323.883 81.1807 322.948 79.954C322.028 78.7273 320.579 78.114 318.601 78.114ZM320.717 86.486V87.222C320.717 89.108 320.564 90.8867 320.257 92.558C319.95 94.214 319.506 95.7397 318.923 97.135C318.34 98.5303 317.627 99.803 316.784 100.953L313.794 100.516C314.637 99.3047 315.343 98.0167 315.91 96.652C316.477 95.2873 316.907 93.823 317.198 92.259C317.489 90.695 317.635 89.0007 317.635 87.176V86.486C317.635 84.8607 317.382 83.6647 316.876 82.898C316.385 82.1313 315.619 81.748 314.576 81.748C314.269 81.748 313.94 81.794 313.587 81.886C313.25 81.9627 312.897 82.116 312.529 82.346L313.265 79.954C313.587 79.816 313.955 79.701 314.369 79.609C314.783 79.517 315.151 79.471 315.473 79.471C317.236 79.471 318.547 80.0537 319.406 81.219C320.28 82.3843 320.717 84.14 320.717 86.486ZM324.136 71.536C324.136 69.5887 324.65 68.086 325.677 67.028C326.704 65.97 328.146 65.441 330.001 65.441C331.902 65.441 333.351 65.97 334.348 67.028C335.36 68.0707 335.866 69.6117 335.866 71.651V103H332.669V71.628C332.669 70.4627 332.447 69.5963 332.002 69.029C331.557 68.4617 330.89 68.178 330.001 68.178C329.142 68.178 328.483 68.4617 328.023 69.029C327.563 69.581 327.333 70.409 327.333 71.513V73.928H324.136V71.536ZM354.291 100.516C356.208 100.516 357.166 99.1207 357.166 96.33V82.254C357.166 80.828 356.936 79.7777 356.476 79.103C356.016 78.4283 355.288 78.091 354.291 78.091C352.374 78.091 351.416 79.4787 351.416 82.254V96.33C351.416 99.1207 352.374 100.516 354.291 100.516ZM354.291 75.239C356.3 75.239 357.795 75.8293 358.776 77.01C359.773 78.1907 360.271 79.954 360.271 82.3V96.307C360.271 98.6377 359.773 100.401 358.776 101.597C357.795 102.793 356.3 103.391 354.291 103.391C352.972 103.391 351.861 103.123 350.956 102.586C350.067 102.049 349.43 101.229 349.047 100.125L348.656 99.32C348.549 98.8753 348.457 98.4077 348.38 97.917C348.319 97.411 348.288 96.8743 348.288 96.307V82.3C348.288 79.954 348.786 78.1907 349.783 77.01C350.78 75.8293 352.282 75.239 354.291 75.239ZM364.963 92.075C364.963 90.557 364.695 89.43 364.158 88.694C363.621 87.9427 362.778 87.567 361.628 87.567H359.167L358.201 87.59H350.128L349.369 87.567H346.678C345.559 87.567 344.723 87.9427 344.171 88.694C343.634 89.43 343.366 90.557 343.366 92.075V96.836C343.366 98.1087 343.573 99.0593 343.987 99.688C344.401 100.317 345.053 100.631 345.942 100.631C346.617 100.631 347.169 100.432 347.598 100.033C348.043 99.619 348.349 99.0363 348.518 98.285L349.323 100.286L349.001 100.309C348.756 101.244 348.319 101.996 347.69 102.563C347.061 103.115 346.18 103.391 345.045 103.391C343.42 103.391 342.201 102.847 341.388 101.758C340.591 100.669 340.192 99.0593 340.192 96.928V92.144C340.192 89.7827 340.698 87.9963 341.71 86.785C342.722 85.5583 344.263 84.945 346.333 84.945H349.162H350.312H358.155H359.213H361.973C364.058 84.945 365.607 85.5507 366.619 86.762C367.631 87.958 368.137 89.7213 368.137 92.052V96.1C368.137 97.6027 368.007 98.9443 367.746 100.125C367.501 101.29 367.102 102.249 366.55 103H363.284C363.79 102.233 364.196 101.275 364.503 100.125C364.81 98.9597 364.963 97.618 364.963 96.1V92.075ZM375.173 85.106V93.524H375.518L375.196 95.065V97.434C375.196 98.5687 375.403 99.4273 375.817 100.01C376.231 100.593 376.875 100.884 377.749 100.884C378.638 100.884 379.282 100.593 379.681 100.01C380.095 99.4273 380.302 98.5687 380.302 97.434V96.583C380.302 95.5097 380.11 94.7047 379.727 94.168C379.344 93.616 378.738 93.34 377.91 93.34C377.266 93.34 376.714 93.5317 376.254 93.915C375.794 94.283 375.434 94.8273 375.173 95.548L375.012 94.513C375.227 93.363 375.671 92.4583 376.346 91.799C377.021 91.1243 377.941 90.787 379.106 90.787C380.486 90.787 381.536 91.247 382.257 92.167C382.993 93.087 383.361 94.444 383.361 96.238V97.319C383.361 99.343 382.909 100.884 382.004 101.942C381.099 103 379.689 103.529 377.772 103.529C375.871 103.529 374.452 102.985 373.517 101.896C372.597 100.807 372.137 99.228 372.137 97.158V81.541C372.137 79.4557 372.597 77.8763 373.517 76.803C374.452 75.7143 375.878 75.17 377.795 75.17C379.696 75.17 381.099 75.699 382.004 76.757C382.909 77.7997 383.361 79.3407 383.361 81.38V82.323C383.361 84.071 382.993 85.405 382.257 86.325C381.536 87.2297 380.478 87.682 379.083 87.682C377.964 87.682 377.051 87.3677 376.346 86.739C375.641 86.095 375.196 85.2363 375.012 84.163L375.173 83.105C375.434 83.8257 375.794 84.3777 376.254 84.761C376.714 85.129 377.266 85.313 377.91 85.313C378.738 85.313 379.344 85.0447 379.727 84.508C380.11 83.956 380.302 83.1433 380.302 82.07V81.265C380.302 80.115 380.095 79.2563 379.681 78.689C379.282 78.1063 378.638 77.815 377.749 77.815C376.875 77.815 376.231 78.1063 375.817 78.689C375.403 79.2563 375.196 80.115 375.196 81.265V83.496L375.518 85.106H375.173ZM393.858 78.229C392.662 78.229 391.78 78.643 391.213 79.471C390.661 80.2837 390.385 81.5333 390.385 83.22V94.191C390.385 96.1383 390.515 97.8633 390.776 99.366C391.052 100.869 391.428 102.08 391.903 103H388.637C388.146 102.111 387.778 100.93 387.533 99.458C387.288 97.9707 387.165 96.2687 387.165 94.352V83.266C387.165 80.6133 387.717 78.62 388.821 77.286C389.925 75.952 391.604 75.285 393.858 75.285C396.143 75.285 397.837 75.952 398.941 77.286C400.045 78.62 400.597 80.6133 400.597 83.266V94.168C400.597 96.146 400.444 97.8863 400.137 99.389C399.846 100.876 399.363 102.08 398.688 103H395.836V102.793C396.357 101.858 396.741 100.669 396.986 99.228C397.247 97.7713 397.377 96.0923 397.377 94.191V83.22C397.377 81.5333 397.093 80.2837 396.526 79.471C395.959 78.643 395.069 78.229 393.858 78.229ZM405.45 75.86H408.647V103H405.45V75.86ZM398.642 100.401H408.21V103H395.859L398.642 100.401ZM421.821 96.422V82.415C421.821 81.0043 421.598 79.954 421.154 79.264C420.709 78.574 420.011 78.229 419.061 78.229C418.095 78.229 417.389 78.574 416.945 79.264C416.515 79.954 416.301 81.0043 416.301 82.415V86.302H413.127V82.415C413.127 80.0537 413.617 78.275 414.599 77.079C415.58 75.883 417.067 75.285 419.061 75.285C421.085 75.285 422.58 75.883 423.546 77.079C424.527 78.275 425.018 80.0537 425.018 82.415V96.376C425.018 98.7373 424.527 100.516 423.546 101.712C422.58 102.908 421.085 103.506 419.061 103.506C417.067 103.506 415.58 102.908 414.599 101.712C413.617 100.516 413.127 98.7373 413.127 96.376V92.282H416.301V96.422C416.301 97.802 416.515 98.837 416.945 99.527C417.389 100.202 418.095 100.539 419.061 100.539C420.011 100.539 420.709 100.202 421.154 99.527C421.598 98.837 421.821 97.802 421.821 96.422ZM438.549 78.206C436.387 78.206 434.8 78.8807 433.788 80.23C432.776 81.564 432.27 83.6033 432.27 86.348V87.291C432.285 87.291 432.339 87.291 432.431 87.291C432.523 87.291 432.576 87.291 432.592 87.291C432.576 87.3983 432.546 87.567 432.5 87.797C432.469 88.027 432.431 88.2493 432.385 88.464C432.354 88.6787 432.331 88.8397 432.316 88.947V96.997C432.316 98.2083 432.515 99.1053 432.914 99.688C433.312 100.271 433.926 100.562 434.754 100.562C435.566 100.562 436.164 100.271 436.548 99.688C436.931 99.1053 437.123 98.2083 437.123 96.997V90.465C437.123 89.3763 436.939 88.5713 436.571 88.05C436.203 87.5133 435.635 87.245 434.869 87.245C434.255 87.245 433.734 87.429 433.305 87.797C432.875 88.1497 432.53 88.7017 432.27 89.453L432.132 88.349C432.331 87.107 432.768 86.1333 433.443 85.428C434.133 84.7227 435.053 84.37 436.203 84.37C437.537 84.37 438.549 84.8377 439.239 85.773C439.929 86.7083 440.274 88.119 440.274 90.005V96.905C440.274 99.0363 439.814 100.646 438.894 101.735C437.974 102.824 436.594 103.368 434.754 103.368C432.883 103.368 431.488 102.824 430.568 101.735C429.663 100.646 429.211 99.0363 429.211 96.905V86.302C429.211 82.668 429.985 79.9233 431.534 78.068C433.082 76.2127 435.451 75.285 438.641 75.285C441.861 75.285 444.245 76.2127 445.794 78.068C447.358 79.9233 448.14 82.668 448.14 86.302V94.076C448.14 96.0387 447.994 97.7867 447.703 99.32C447.427 100.838 446.974 102.065 446.346 103H443.057C443.655 102.049 444.115 100.823 444.437 99.32C444.774 97.8173 444.943 96.077 444.943 94.099V86.302C444.943 83.5573 444.421 81.5257 443.379 80.207C442.351 78.873 440.741 78.206 438.549 78.206ZM451.861 94.122H455.012V96.445C455.012 97.3803 455.135 98.1547 455.38 98.768C455.626 99.366 455.994 99.8183 456.484 100.125C456.99 100.416 457.619 100.562 458.37 100.562C459.122 100.562 459.735 100.416 460.21 100.125C460.701 99.8183 461.061 99.366 461.291 98.768C461.521 98.1547 461.636 97.3803 461.636 96.445V95.364C461.636 94.5053 461.514 93.7617 461.268 93.133C461.038 92.5043 460.594 91.9447 459.934 91.454C459.29 90.948 458.34 90.488 457.082 90.074C455.779 89.614 454.752 89.0543 454 88.395C453.249 87.7203 452.712 86.923 452.39 86.003C452.084 85.0677 451.93 84.002 451.93 82.806V82.369C451.93 80.0383 452.467 78.275 453.54 77.079C454.614 75.883 456.224 75.285 458.37 75.285C460.502 75.285 462.089 75.883 463.131 77.079C464.174 78.275 464.695 80.0383 464.695 82.369V83.887H461.544V82.369C461.544 81.4337 461.429 80.6593 461.199 80.046C460.969 79.4327 460.624 78.9727 460.164 78.666C459.704 78.3593 459.106 78.206 458.37 78.206C457.634 78.206 457.029 78.3593 456.553 78.666C456.078 78.9727 455.718 79.4327 455.472 80.046C455.242 80.6593 455.127 81.4337 455.127 82.369V82.714C455.127 83.542 455.235 84.2627 455.449 84.876C455.679 85.4893 456.086 86.026 456.668 86.486C457.251 86.946 458.094 87.3677 459.198 87.751C460.64 88.257 461.767 88.8473 462.579 89.522C463.407 90.1967 463.99 91.0017 464.327 91.937C464.665 92.857 464.833 93.9687 464.833 95.272V96.537C464.833 98.8677 464.304 100.616 463.246 101.781C462.188 102.931 460.563 103.506 458.37 103.506C456.178 103.506 454.545 102.931 453.471 101.781C452.398 100.616 451.861 98.8677 451.861 96.537V94.122Z" fill="black"/>
<path d="M13.5476 49.03H5.64485V21.0751H5.21063L0 24.3263L0.14474 15.966L6.91856 11.9309H13.5476V49.03Z" fill="#A75900"/>
<path d="M24.1254 49.5816C23.1991 49.5816 22.292 49.4945 21.4043 49.3203C20.5359 49.1655 19.735 48.9526 19.0016 48.6817C18.2876 48.4107 17.6893 48.1301 17.2068 47.8398L16.7437 40.6987C17.5735 41.1632 18.4419 41.5696 19.349 41.9179C20.2753 42.2469 21.2499 42.4114 22.2727 42.4114C23.2763 42.4114 24.0579 42.2759 24.6175 42.005C25.1965 41.7147 25.6017 41.2793 25.8333 40.6987C26.0842 40.1181 26.2096 39.4117 26.2096 38.5796V37.7087C26.2096 36.8185 26.0649 36.0928 25.7754 35.5315C25.5052 34.9703 25.0517 34.5542 24.4149 34.2833C23.778 33.993 22.9385 33.8285 21.8964 33.7898L19.6674 33.7027V26.9099L21.8964 26.7938C22.9192 26.7357 23.7394 26.5712 24.357 26.3003C24.9938 26.01 25.457 25.5939 25.7465 25.0521C26.036 24.4908 26.1807 23.7845 26.1807 22.9329V22.2943C26.1807 21.0557 25.9105 20.1074 25.3702 19.4495C24.8298 18.7915 23.8938 18.4625 22.5622 18.4625C21.4429 18.4625 20.4297 18.6173 19.5227 18.9269C18.6156 19.2366 17.7858 19.5946 17.0331 20.001L17.4963 13.2082C18.3069 12.7244 19.3104 12.2986 20.5069 11.9309C21.7227 11.5439 23.1605 11.3504 24.8201 11.3504C28.0237 11.3504 30.3685 12.1728 31.8545 13.8178C33.3598 15.4434 34.1124 17.6884 34.1124 20.5526V21.8298C34.1124 23.3393 33.8905 24.6456 33.4466 25.7487C33.0028 26.8325 32.3466 27.7034 31.4782 28.3614C30.6097 29 29.529 29.4451 28.236 29.6967V30.8869L27.8886 29.9289C30.2045 30.2579 31.8448 31.0901 32.8098 32.4254C33.794 33.7414 34.2861 35.5702 34.2861 37.9119V39.4214C34.2861 42.4985 33.4756 44.966 31.8545 46.8238C30.2334 48.6623 27.657 49.5816 24.1254 49.5816Z" fill="#A75900"/>
<path d="M46.2905 49.03H38.1272L45.8563 19.1011H36.3613V11.9309H53.759V19.3914L46.2905 49.03Z" fill="#A75900"/>
<path d="M76.3326 20.5816C75.1939 20.5816 74.3737 20.988 73.872 21.8008C73.3702 22.5943 73.1193 23.8425 73.1193 25.5455V37.1862C73.1193 39.644 73.2448 41.8986 73.4957 43.95C73.7465 45.982 74.0746 47.6753 74.4799 49.03H66.9824C66.4999 47.7528 66.1429 46.1078 65.9113 44.0951C65.6797 42.0631 65.5639 39.8762 65.5639 37.5345V25.6326C65.5639 21.6653 66.4613 18.6753 68.2561 16.6627C70.0509 14.65 72.743 13.6436 76.3326 13.6436C79.9414 13.6436 82.6336 14.65 84.409 16.6627C86.2038 18.6753 87.1012 21.6653 87.1012 25.6326V36.6927C87.1012 39.2279 86.8696 41.5696 86.4064 43.7177C85.9626 45.8659 85.2292 47.6366 84.2064 49.03H78.0694V48.6817C78.5326 47.3076 78.8896 45.6433 79.1405 43.6887C79.4107 41.7147 79.5458 39.5472 79.5458 37.1862V25.5455C79.5458 23.8425 79.2852 22.5943 78.7642 21.8008C78.2624 20.988 77.4519 20.5816 76.3326 20.5816ZM91.4434 14.5726H98.9988V49.03H91.4434V14.5726ZM84.2643 42.992H97.9567V49.03H78.1273L84.2643 42.992Z" fill="#A75900"/>
<path d="M114.995 31.7287C114.995 29.6193 115.111 27.8292 115.343 26.3584C115.594 24.8682 115.96 23.5329 116.443 22.3524C116.925 21.1525 117.523 19.972 118.237 18.8108C118.276 18.5979 118.334 18.2786 118.411 17.8529C118.488 17.4271 118.556 17.0013 118.614 16.5756C118.691 16.1498 118.739 15.8499 118.758 15.6757C118.894 15.0757 119 14.4855 119.077 13.9049C119.154 13.3243 119.193 12.6857 119.193 11.989C119.193 10.7117 119.058 9.48282 118.787 8.3023C118.537 7.12179 118.16 5.98966 117.658 4.90591H124.316C124.76 5.91225 125.108 6.94762 125.359 8.01201C125.629 9.05706 125.764 10.3053 125.764 11.7568C125.764 12.647 125.706 13.4985 125.59 14.3113C125.494 15.1241 125.32 15.9273 125.069 16.7207C125.011 16.953 124.915 17.3594 124.78 17.9399C124.645 18.5205 124.509 19.1011 124.374 19.6817C124.239 20.2429 124.143 20.63 124.085 20.8428C123.68 21.8685 123.342 22.9329 123.072 24.036C122.802 25.1391 122.599 26.31 122.464 27.5486C122.329 28.7871 122.261 30.1515 122.261 31.6416V40.2923C122.261 41.3373 122.416 42.1018 122.724 42.5856C123.052 43.0501 123.554 43.2823 124.23 43.2823C124.905 43.2823 125.397 43.0501 125.706 42.5856C126.034 42.1018 126.198 41.3373 126.198 40.2923V29.8999C126.198 27.8098 125.976 26.039 125.532 24.5876C125.108 23.1168 124.307 22.004 123.13 21.2493L122.03 20.8138C121.547 20.5622 121.016 20.3784 120.437 20.2623C119.878 20.1461 119.251 20.0881 118.556 20.0881C115.931 20.0881 114.001 20.8719 112.766 22.4394C111.531 24.007 110.914 26.4842 110.914 29.8709V37.041C110.914 39.5375 111.097 41.8212 111.464 43.8919C111.83 45.9433 112.313 47.656 112.911 49.03H105.356C104.661 47.656 104.159 45.9143 103.85 43.8048C103.542 41.676 103.387 39.3827 103.387 36.9249V29.8709C103.387 24.5102 104.622 20.4655 107.092 17.7367C109.582 15.008 113.326 13.6436 118.324 13.6436C119.27 13.6436 120.129 13.7017 120.901 13.8178C121.692 13.9339 122.473 14.0984 123.245 14.3113L124.895 14.7467C127.134 15.5789 128.871 16.7304 130.106 18.2012C131.36 19.6527 132.229 21.3654 132.711 23.3393C133.213 25.3133 133.464 27.5002 133.464 29.8999V40.002C133.464 43.2146 132.682 45.6433 131.119 47.2883C129.575 48.9333 127.25 49.7558 124.143 49.7558C121.055 49.7558 118.758 48.9333 117.253 47.2883C115.748 45.6433 114.995 43.2146 114.995 40.002V31.7287Z" fill="#A75900"/>
<path d="M146.861 25.2843C150.141 25.2843 152.583 26.1842 154.184 27.984C155.786 29.7644 156.587 32.3867 156.587 35.8509V38.7828C156.587 40.8535 156.278 42.7598 155.661 44.5015C155.063 46.2239 154.136 47.7334 152.882 49.03H148.105V48.6817C148.472 47.6753 148.762 46.4755 148.974 45.0821C149.186 43.6887 149.292 42.1405 149.292 40.4374V35.7638C149.292 34.4671 149.09 33.4995 148.684 32.8609C148.298 32.2029 147.671 31.8739 146.803 31.8739C145.954 31.8739 145.336 32.2029 144.95 32.8609C144.564 33.4995 144.371 34.4671 144.371 35.7638V40.4374C144.371 42.2372 144.458 43.8629 144.632 45.3143C144.805 46.7658 145.018 48.0043 145.268 49.03H138.147C137.819 47.9463 137.568 46.669 137.395 45.1982C137.221 43.7274 137.134 42.1018 137.134 40.3213V35.8509C137.134 32.3867 137.925 29.7644 139.508 27.984C141.11 26.1842 143.561 25.2843 146.861 25.2843ZM149.495 49.03L153.866 43.0791H178.356V14.5726H185.853V49.03H149.495ZM167.79 26.4745V22.7588C167.79 21.7137 167.636 20.9493 167.327 20.4655C167.037 19.9817 166.574 19.7397 165.937 19.7397C165.281 19.7397 164.799 19.9817 164.49 20.4655C164.181 20.9493 164.027 21.7137 164.027 22.7588V26.2422C164.027 28.2162 164.461 29.658 165.329 30.5676C166.217 31.4578 167.597 31.9029 169.469 31.9029H171.003C171.235 31.9029 171.476 31.9029 171.727 31.9029C171.997 31.9029 172.238 31.8932 172.451 31.8739C173.744 31.7965 174.892 31.5836 175.895 31.2352C176.899 30.8675 177.97 30.3353 179.109 29.6386L179.138 35.9089C178.115 36.5475 177.015 37.0314 175.837 37.3604C174.66 37.6894 173.406 37.8539 172.074 37.8539C171.785 37.8539 171.428 37.8539 171.003 37.8539C170.598 37.8539 170.279 37.8539 170.048 37.8539H169.006C164.992 37.8539 161.981 36.8475 159.974 34.8348C157.986 32.8222 156.992 29.9193 156.992 26.1261V23.02C156.992 19.9429 157.735 17.6109 159.221 16.024C160.727 14.4371 162.994 13.6436 166.024 13.6436C169.015 13.6436 171.254 14.4081 172.74 15.9369C174.226 17.4464 174.969 19.6817 174.969 22.6426V25.8068C174.969 27.026 174.805 28.3323 174.477 29.7257C174.168 31.1191 173.705 32.5996 173.087 34.1672C173.068 34.2446 172.991 34.5542 172.856 35.0961C172.74 35.6186 172.624 36.1411 172.508 36.6637C172.393 37.1668 172.325 37.4668 172.306 37.5636L170.251 43.9209L162.869 44.1822L165.271 36.9249C165.291 36.8282 165.387 36.5282 165.561 36.025C165.735 35.5219 165.899 35.0187 166.053 34.5155C166.227 34.0124 166.323 33.7124 166.343 33.6156C166.806 32.2609 167.163 31.0224 167.414 29.8999C167.665 28.7581 167.79 27.6163 167.79 26.4745Z" fill="#A75900"/>
<path d="M204.647 20.3494C202.042 20.3494 200.141 21.1235 198.944 22.6717C197.748 24.2199 197.15 26.6583 197.15 29.987V30.6256C197.188 30.6256 197.265 30.6256 197.381 30.6256C197.516 30.6256 197.593 30.6256 197.613 30.6256C197.613 30.703 197.584 30.9449 197.526 31.3514C197.487 31.7384 197.439 32.1255 197.381 32.5125C197.323 32.8996 197.294 33.1318 197.294 33.2092V40.2052C197.294 41.2696 197.449 42.0437 197.757 42.5275C198.066 43.0113 198.549 43.2533 199.205 43.2533C199.861 43.2533 200.334 43.0113 200.623 42.5275C200.913 42.0437 201.057 41.2696 201.057 40.2052V34.6026C201.057 33.693 200.913 33.0254 200.623 32.5996C200.334 32.1738 199.88 31.961 199.263 31.961C198.742 31.961 198.317 32.1158 197.989 32.4254C197.661 32.7157 197.4 33.1512 197.207 33.7317L197.236 31.5836C197.449 29.5128 197.999 27.955 198.886 26.9099C199.793 25.8455 201.077 25.3133 202.736 25.3133C204.589 25.3133 205.969 25.981 206.876 27.3163C207.783 28.6517 208.237 30.7127 208.237 33.4995V39.9439C208.237 43.1565 207.484 45.5949 205.979 47.2593C204.493 48.9042 202.244 49.7267 199.234 49.7267C196.204 49.7267 193.927 48.9042 192.402 47.2593C190.897 45.5949 190.144 43.1565 190.144 39.9439V29.8128C190.144 24.4908 191.36 20.4655 193.792 17.7367C196.242 15.008 199.948 13.6436 204.908 13.6436C209.867 13.6436 213.573 15.008 216.024 17.7367C218.475 20.4655 219.7 24.4908 219.7 29.8128V36.9249C219.7 39.3827 219.546 41.676 219.237 43.8048C218.928 45.9143 218.417 47.656 217.703 49.03H210.147C210.765 47.656 211.257 45.9433 211.623 43.8919C211.99 41.8212 212.173 39.5375 212.173 37.041V29.8128C212.173 26.5422 211.566 24.1522 210.35 22.6426C209.153 21.1138 207.252 20.3494 204.647 20.3494Z" fill="#A75900"/>
<path d="M258.12 48.9139V28.6226L265.675 27.026V48.9139H258.12ZM251.578 13.7017C254.588 13.7017 256.933 14.35 258.612 15.6466C260.291 16.9239 261.362 18.8205 261.825 21.3363L263.07 31.4384H258.12V28.042C258.12 25.2166 257.56 23.1361 256.441 21.8008C255.341 20.4461 253.614 19.7688 251.259 19.7688C250.564 19.7688 249.927 19.8462 249.349 20.001C248.77 20.1365 248.21 20.359 247.67 20.6687C247.573 20.7267 247.37 20.8332 247.062 20.988C246.753 21.1235 246.454 21.2686 246.164 21.4234C245.875 21.5589 245.682 21.646 245.585 21.6847C244.427 22.4781 243.665 23.5716 243.298 24.965C242.932 26.339 242.748 28.0324 242.748 30.045V40.0601C242.748 41.1438 242.912 41.9373 243.241 42.4404C243.569 42.9436 244.09 43.1952 244.804 43.1952C245.518 43.1952 246.039 42.9436 246.367 42.4404C246.714 41.9373 246.888 41.1438 246.888 40.0601V30.045C246.888 28.0324 246.705 26.339 246.338 24.965C245.971 23.5716 245.199 22.4781 244.022 21.6847C243.906 21.646 243.665 21.5589 243.298 21.4234C242.951 21.2686 242.594 21.1235 242.227 20.988C241.88 20.8332 241.639 20.7267 241.504 20.6687C240.963 20.359 240.394 20.1365 239.796 20.001C239.217 19.8462 238.58 19.7688 237.885 19.7688C235.608 19.7688 233.939 20.5042 232.877 21.975C231.816 23.4458 231.285 25.7778 231.285 28.971V37.041C231.285 39.5375 231.468 41.8212 231.835 43.8919C232.202 45.9433 232.684 47.656 233.282 49.03H225.727C225.052 47.656 224.55 45.9143 224.222 43.8048C223.913 41.676 223.759 39.3827 223.759 36.9249V29.0581C223.759 23.8715 224.801 20.0204 226.885 17.5045C228.969 14.9693 232.24 13.7017 236.698 13.7017C239.13 13.7017 241.147 14.0501 242.748 14.7467C244.35 15.4434 245.479 16.2176 246.135 17.0691L248.827 18.9269C250.873 20.1849 252.292 21.7137 253.083 23.5135C253.874 25.3133 254.27 27.5679 254.27 30.2773V39.973C254.27 46.4755 251.114 49.7267 244.804 49.7267C238.512 49.7267 235.367 46.4755 235.367 39.973V30.2773C235.367 27.5679 235.762 25.3133 236.554 23.5135C237.345 21.6944 238.763 20.1655 240.809 18.9269L243.472 17.0691C244.051 16.2176 245.026 15.4434 246.396 14.7467C247.785 14.0501 249.513 13.7017 251.578 13.7017ZM272.217 13.7017C274.302 13.7017 276.039 14.0501 277.428 14.7467C278.818 15.4434 279.792 16.2176 280.352 17.0691L283.015 18.9269C285.041 20.1849 286.45 21.7137 287.241 23.5135C288.052 25.3133 288.457 27.5679 288.457 30.2773V39.973C288.457 46.4755 285.302 49.7267 278.991 49.7267C272.7 49.7267 269.554 46.4755 269.554 39.973V30.2773C269.554 27.5679 269.95 25.3133 270.741 23.5135C271.532 21.6944 272.951 20.1655 274.996 18.9269L277.66 17.0691C278.335 16.2176 279.474 15.4434 281.075 14.7467C282.677 14.0501 284.694 13.7017 287.126 13.7017C291.584 13.7017 294.845 14.9596 296.91 17.4755C298.994 19.9913 300.036 23.8522 300.036 29.0581V36.9249C300.036 39.3827 299.882 41.676 299.573 43.8048C299.264 45.9143 298.763 47.656 298.068 49.03H290.513C291.111 47.656 291.593 45.9433 291.96 43.8919C292.327 41.8212 292.51 39.5375 292.51 37.041V28.971C292.51 25.7778 291.979 23.4458 290.918 21.975C289.876 20.5042 288.216 19.7688 285.939 19.7688C285.244 19.7688 284.597 19.8462 283.999 20.001C283.42 20.1365 282.861 20.359 282.32 20.6687C282.282 20.688 282.06 20.7848 281.654 20.959C281.249 21.1138 280.844 21.2783 280.439 21.4525C280.033 21.6073 279.811 21.6847 279.773 21.6847C278.615 22.4781 277.853 23.5716 277.486 24.965C277.119 26.339 276.936 28.0324 276.936 30.045V40.0601C276.936 41.1438 277.1 41.9373 277.428 42.4404C277.756 42.9436 278.277 43.1952 278.991 43.1952C279.725 43.1952 280.255 42.9436 280.583 42.4404C280.911 41.9373 281.075 41.1438 281.075 40.0601V30.045C281.075 28.0324 280.892 26.339 280.525 24.965C280.159 23.5716 279.387 22.4781 278.21 21.6847C278.19 21.6847 278.007 21.6073 277.66 21.4525C277.332 21.2783 276.994 21.1138 276.646 20.959C276.299 20.7848 276.106 20.688 276.067 20.6687C275.546 20.359 274.996 20.1365 274.417 20.001C273.858 19.8462 273.231 19.7688 272.536 19.7688C270.239 19.7688 268.522 20.4461 267.383 21.8008C266.244 23.1361 265.675 25.2166 265.675 28.042V31.4384H260.754L260.493 21.2493H261.999C262.443 18.7528 263.504 16.8755 265.183 15.6176C266.881 14.3403 269.226 13.7017 272.217 13.7017Z" fill="#A75900"/>
<path d="M323.521 20.5816C322.382 20.5816 321.562 20.988 321.06 21.8008C320.559 22.5943 320.308 23.8425 320.308 25.5455V37.1862C320.308 39.644 320.433 41.8986 320.684 43.95C320.935 45.982 321.263 47.6753 321.668 49.03H314.171C313.688 47.7528 313.331 46.1078 313.1 44.0951C312.868 42.0631 312.752 39.8762 312.752 37.5345V25.6326C312.752 21.6653 313.65 18.6753 315.444 16.6627C317.239 14.65 319.931 13.6436 323.521 13.6436C327.13 13.6436 329.822 14.65 331.597 16.6627C333.392 18.6753 334.29 21.6653 334.29 25.6326V36.6927C334.29 39.2279 334.058 41.5696 333.595 43.7177C333.151 45.8659 332.418 47.6366 331.395 49.03H325.258V48.6817C325.721 47.3076 326.078 45.6433 326.329 43.6887C326.599 41.7147 326.734 39.5472 326.734 37.1862V25.5455C326.734 23.8425 326.474 22.5943 325.952 21.8008C325.451 20.988 324.64 20.5816 323.521 20.5816ZM338.632 14.5726H346.187V49.03H338.632V14.5726ZM331.453 42.992H345.145V49.03H325.316L331.453 42.992Z" fill="#A75900"/>
<path d="M338.62 9.95696C338.62 6.78312 339.517 4.335 341.312 2.61261C343.088 0.870871 345.577 0 348.781 0C352.023 0 354.532 0.870871 356.307 2.61261C358.102 4.335 358.999 6.79279 358.999 9.98599V49.03H351.415V9.84084C351.415 8.66033 351.203 7.77978 350.778 7.1992C350.353 6.61862 349.688 6.32833 348.781 6.32833C347.912 6.32833 347.266 6.61862 346.841 7.1992C346.417 7.77978 346.204 8.65065 346.204 9.81181V12.6857H338.62V9.95696Z" fill="#A75900"/>
<path d="M390.245 20.3203C387.697 20.3203 385.844 21.0073 384.686 22.3814C383.529 23.7554 382.95 25.981 382.95 29.0581C382.95 30.0063 382.988 31.0611 383.065 32.2222C383.143 33.3834 383.21 34.5542 383.268 35.7347C383.326 36.8959 383.355 37.9796 383.355 38.986C383.355 42.5856 382.535 45.2853 380.894 47.0851C379.254 48.8849 376.764 49.7848 373.426 49.7848C370.087 49.7848 367.588 48.8849 365.928 47.0851C364.288 45.2853 363.468 42.5856 363.468 38.986V26.7648C363.468 24.2876 363.622 22.0234 363.931 19.972C364.24 17.9012 364.751 16.1208 365.465 14.6306H372.876C372.297 15.9853 371.843 17.7077 371.515 19.7978C371.187 21.8685 371.023 24.1522 371.023 26.6487V39.044C371.023 40.3794 371.206 41.347 371.573 41.947C371.959 42.5469 372.577 42.8468 373.426 42.8468C374.294 42.8468 374.902 42.5469 375.249 41.947C375.616 41.347 375.799 40.3794 375.799 39.044C375.799 38.0377 375.771 36.9443 375.713 35.7638C375.655 34.5639 375.587 33.3737 375.51 32.1932C375.433 30.9933 375.394 29.8999 375.394 28.9129C375.394 23.7845 376.562 19.9623 378.897 17.4464C381.251 14.9112 384.879 13.6436 389.781 13.6436C394.702 13.6436 398.379 14.95 400.81 17.5626C403.242 20.1752 404.458 24.0554 404.458 29.2032V39.9439C404.458 43.1565 403.696 45.5949 402.171 47.2593C400.666 48.9042 398.398 49.7267 395.368 49.7267C392.358 49.7267 390.109 48.9042 388.623 47.2593C387.137 45.5949 386.394 43.1565 386.394 39.9439V33.5576C386.394 30.616 386.848 28.4388 387.755 27.026C388.681 25.6133 390.1 24.9069 392.01 24.9069C393.612 24.9069 394.847 25.3617 395.716 26.2713C396.584 27.1809 397.124 28.5259 397.337 30.3063L397.424 32.3964C397.25 32.1448 397.009 31.9416 396.7 31.7868C396.41 31.632 396.034 31.5546 395.571 31.5546C394.876 31.5546 394.365 31.7674 394.037 32.1932C393.728 32.619 393.574 33.2963 393.574 34.2252V40.2052C393.574 41.2696 393.718 42.0437 394.008 42.5275C394.297 43.0113 394.77 43.2533 395.426 43.2533C396.102 43.2533 396.584 43.0113 396.874 42.5275C397.182 42.0437 397.337 41.2696 397.337 40.2052V31.7868L396.874 29.8418H397.453V29.4645C397.453 27.355 397.202 25.6326 396.7 24.2973C396.198 22.9426 395.417 21.9459 394.355 21.3073C393.294 20.6493 391.923 20.3203 390.245 20.3203Z" fill="#A75900"/>
<path d="M409.254 14.5726H416.81V58H409.254V14.5726ZM399.209 52.2232H414.204L414.175 58H399.875L399.209 52.2232Z" fill="#A75900"/>
<path d="M421.307 25.1682C421.307 21.3363 422.031 18.4625 423.478 16.5465C424.925 14.6113 427.183 13.6436 430.252 13.6436C432.664 13.6436 434.488 14.2049 435.723 15.3273C436.977 16.4498 437.788 18.1044 438.155 20.2913L438.097 30.7127L434.449 30.3934V25.1391C434.449 22.2749 433.523 20.8428 431.67 20.8428C429.798 20.8428 428.862 22.2749 428.862 25.1391V37.041C428.862 39.5375 429.017 41.8212 429.326 43.8919C429.654 45.9433 430.098 47.656 430.657 49.03H423.16C422.504 47.656 422.031 45.9143 421.741 43.8048C421.452 41.676 421.307 39.3827 421.307 36.9249V25.1682ZM434.449 27.5195H442.034V48.9139H434.449V27.5195ZM444.726 20.8428C443.761 20.8428 443.066 21.1815 442.642 21.8589C442.236 22.5362 442.034 23.5813 442.034 24.994V30.3934L435.347 29.4645L435.694 20.2913H438.357C438.608 18.0851 439.38 16.4304 440.673 15.3273C441.966 14.2049 443.78 13.6436 446.115 13.6436C449.145 13.6436 451.374 14.5822 452.802 16.4595C454.25 18.3173 454.973 21.1525 454.973 24.965C454.973 26.5519 454.925 28.1195 454.829 29.6677C454.732 31.1965 454.636 32.7351 454.539 34.2833C454.443 35.8121 454.395 37.3604 454.395 38.9279C454.395 40.302 454.597 41.2986 455.002 41.9179C455.408 42.5372 456.064 42.8468 456.971 42.8468C457.878 42.8468 458.524 42.5372 458.91 41.9179C459.296 41.2986 459.489 40.302 459.489 38.9279V26.6487C459.489 24.1522 459.325 21.8685 458.997 19.7978C458.669 17.7077 458.216 15.9853 457.637 14.6306H465.047C465.781 16.1208 466.292 17.9012 466.582 19.972C466.89 22.0234 467.045 24.2876 467.045 26.7648V38.8118C467.045 46.1271 463.677 49.7848 456.942 49.7848C453.545 49.7848 451.008 48.8752 449.329 47.0561C447.669 45.2369 446.839 42.4888 446.839 38.8118C446.839 37.2442 446.887 35.696 446.984 34.1672C447.08 32.6383 447.177 31.1094 447.273 29.5806C447.37 28.0517 447.418 26.5132 447.418 24.965C447.418 23.5329 447.215 22.4878 446.81 21.8298C446.405 21.1718 445.71 20.8428 444.726 20.8428Z" fill="#A75900"/>
<path d="M462.691 6.2993C463.907 6.2993 464.737 5.94128 465.181 5.22523C465.625 4.50918 465.847 3.71572 465.847 2.84485V1.3934H472.128V2.84485C472.128 4.52853 471.839 6.05739 471.26 7.43143C470.681 8.80547 469.706 9.90858 468.336 10.7407C466.947 11.5536 465.055 11.96 462.662 11.96C460.308 11.96 458.446 11.5536 457.075 10.7407C455.705 9.90858 454.731 8.80547 454.152 7.43143C453.573 6.05739 453.283 4.52853 453.283 2.84485V1.3934H459.536V2.84485C459.536 3.71572 459.758 4.50918 460.202 5.22523C460.646 5.94128 461.475 6.2993 462.691 6.2993Z" fill="#A75900"/>
<path d="M492.218 49.7267C485.927 49.7267 482.781 46.4755 482.781 39.973V30.2773C482.781 27.5679 483.177 25.3133 483.968 23.5135C484.759 21.6944 486.168 20.1655 488.194 18.9269L490.858 17.0691C491.533 16.2176 492.672 15.4434 494.273 14.7467C495.875 14.0501 497.892 13.7017 500.324 13.7017C504.801 13.7017 508.072 14.9596 510.137 17.4755C512.221 19.9913 513.263 23.8522 513.263 29.0581V36.9249C513.263 39.3827 513.109 41.676 512.8 43.8048C512.491 45.9143 511.98 47.656 511.266 49.03H503.711C504.328 47.656 504.82 45.9433 505.187 43.8919C505.553 41.8212 505.737 39.5375 505.737 37.041V28.971C505.737 25.7778 505.206 23.4458 504.145 21.975C503.083 20.5042 501.414 19.7688 499.137 19.7688C498.442 19.7688 497.795 19.8462 497.197 20.001C496.618 20.1365 496.059 20.359 495.518 20.6687L493 21.6847C491.823 22.4781 491.051 23.5716 490.684 24.965C490.317 26.339 490.134 28.0324 490.134 30.045V40.0601C490.134 41.1438 490.298 41.9373 490.626 42.4404C490.954 42.9436 491.485 43.1952 492.218 43.1952C492.932 43.1952 493.453 42.9436 493.781 42.4404C494.109 41.9373 494.273 41.1438 494.273 40.0601V30.045C494.273 28.0324 494.09 26.339 493.723 24.965C493.357 23.5716 492.594 22.4781 491.437 21.6847L488.889 20.6687C488.349 20.359 487.779 20.1365 487.181 20.001C486.602 19.8462 485.965 19.7688 485.271 19.7688C482.993 19.7688 481.324 20.5042 480.263 21.975C479.221 23.4458 478.699 25.7778 478.699 28.971V37.041C478.699 39.5375 478.883 41.8212 479.249 43.8919C479.616 45.9433 480.099 47.656 480.697 49.03H473.141C472.466 47.656 471.964 45.9143 471.636 43.8048C471.327 41.676 471.173 39.3827 471.173 36.9249V29.0581C471.173 23.8522 472.205 19.9913 474.27 17.4755C476.355 14.9596 479.626 13.7017 484.084 13.7017C486.515 13.7017 488.532 14.0501 490.134 14.7467C491.755 15.4434 492.894 16.2176 493.55 17.0691L496.213 18.9269C498.259 20.1849 499.677 21.7137 500.468 23.5135C501.26 25.3133 501.655 27.5679 501.655 30.2773V39.973C501.655 46.4755 498.51 49.7267 492.218 49.7267Z" fill="#A75900"/>
<path d="M538.354 49.7267C532.063 49.7267 528.917 46.4755 528.917 39.973V30.2773C528.917 27.5679 529.313 25.3133 530.104 23.5135C530.895 21.6944 532.304 20.1655 534.33 18.9269L536.993 17.0691C537.669 16.2176 538.807 15.4434 540.409 14.7467C542.011 14.0501 544.028 13.7017 546.459 13.7017C550.937 13.7017 554.208 14.9596 556.273 17.4755C558.357 19.9913 559.399 23.8522 559.399 29.0581V36.9249C559.399 39.3827 559.245 41.676 558.936 43.8048C558.627 45.9143 558.116 47.656 557.402 49.03H549.846C550.464 47.656 550.956 45.9433 551.323 43.8919C551.689 41.8212 551.873 39.5375 551.873 37.041V28.971C551.873 25.7778 551.342 23.4458 550.281 21.975C549.219 20.5042 547.55 19.7688 545.273 19.7688C544.578 19.7688 543.931 19.8462 543.333 20.001C542.754 20.1365 542.194 20.359 541.654 20.6687L539.136 21.6847C537.958 22.4781 537.186 23.5716 536.82 24.965C536.453 26.339 536.27 28.0324 536.27 30.045V40.0601C536.27 41.1438 536.434 41.9373 536.762 42.4404C537.09 42.9436 537.621 43.1952 538.354 43.1952C539.068 43.1952 539.589 42.9436 539.917 42.4404C540.245 41.9373 540.409 41.1438 540.409 40.0601V30.045C540.409 28.0324 540.226 26.339 539.859 24.965C539.493 23.5716 538.73 22.4781 537.572 21.6847L535.025 20.6687C534.485 20.359 533.915 20.1365 533.317 20.001C532.738 19.8462 532.101 19.7688 531.406 19.7688C529.129 19.7688 527.46 20.5042 526.398 21.975C525.356 23.4458 524.835 25.7778 524.835 28.971V37.041C524.835 39.5375 525.019 41.8212 525.385 43.8919C525.752 45.9433 526.234 47.656 526.833 49.03H519.277C518.602 47.656 518.1 45.9143 517.772 43.8048C517.463 41.676 517.309 39.3827 517.309 36.9249V29.0581C517.309 23.8522 518.341 19.9913 520.406 17.4755C522.49 14.9596 525.762 13.7017 530.22 13.7017C532.651 13.7017 534.668 14.0501 536.27 14.7467C537.891 15.4434 539.029 16.2176 539.686 17.0691L542.349 18.9269C544.394 20.1849 545.813 21.7137 546.604 23.5135C547.395 25.3133 547.791 27.5679 547.791 30.2773V39.973C547.791 46.4755 544.645 49.7267 538.354 49.7267Z" fill="#A75900"/>
<path d="M563.445 39.5666H570.595C570.653 40.0697 570.71 40.6116 570.768 41.1922C570.826 41.7728 570.855 42.4211 570.855 43.1371C570.855 45.4595 570.498 47.6173 569.784 49.6106C569.089 51.6233 567.951 53.5295 566.368 55.3293L561.216 53.965C561.949 52.5135 562.528 50.9363 562.952 49.2332C563.396 47.5496 563.618 45.624 563.618 43.4565C563.618 42.7791 563.599 42.1405 563.56 41.5405C563.541 40.9406 563.502 40.2826 563.445 39.5666ZM566.918 31.2933C565.548 31.2933 564.525 30.8772 563.85 30.045C563.194 29.2129 562.866 28.042 562.866 26.5325V26.039C562.866 24.5489 563.194 23.3877 563.85 22.5556C564.506 21.7234 565.529 21.3073 566.918 21.3073C568.269 21.3073 569.282 21.7234 569.958 22.5556C570.653 23.3877 571 24.5489 571 26.039V26.5325C571 28.042 570.653 29.2129 569.958 30.045C569.282 30.8772 568.269 31.2933 566.918 31.2933Z" fill="#A75900"/>
<path d="M498.996 86.2965L490.346 81L492.642 90.9782L485 97.6841L495.075 98.5566L498.996 108L502.921 98.5566L513 97.6841L505.346 90.9782L507.654 81L498.996 86.2965Z" fill="url(#paint0_linear_32525_800)"/>
<path d="M80.9959 86.2965L72.3462 81L74.6418 90.9782L67 97.6841L77.0748 98.5566L80.9959 108L84.9212 98.5566L95 97.6841L87.3462 90.9782L89.6535 81L80.9959 86.2965Z" fill="url(#paint1_linear_32525_800)"/>
<g clip-path="url(#clip0_32525_800)">
<path d="M337.244 124.331H325.695H316.292H254.707H249.888H233.759L241.256 132.498L233.759 140.67H253.22H254.707H316.292H325.695H337.244L329.744 132.498L337.244 124.331Z" fill="url(#paint2_linear_32525_800)"/>
<path d="M338 141H233L240.803 132.502L233 124H338L330.197 132.498L338 141ZM234.515 140.339H336.485L329.291 132.502L336.485 124.665H234.515L241.709 132.502L234.515 140.339Z" fill="url(#paint3_linear_32525_800)"/>
</g>
<defs>
<linearGradient id="paint0_linear_32525_800" x1="499" y1="173.232" x2="499" y2="73.9189" gradientUnits="userSpaceOnUse">
<stop offset="0.0274" stop-color="#FFF290"/>
<stop offset="0.1344" stop-color="#E2C669"/>
<stop offset="0.2525" stop-color="#C69B43"/>
<stop offset="0.3451" stop-color="#B4812C"/>
<stop offset="0.4" stop-color="#AE7723"/>
<stop offset="0.4694" stop-color="#B27C27"/>
<stop offset="0.5528" stop-color="#BF8B31"/>
<stop offset="0.6429" stop-color="#D4A342"/>
<stop offset="0.7188" stop-color="#EABD54"/>
<stop offset="0.8" stop-color="#EABD54"/>
<stop offset="0.8323" stop-color="#E3B54E"/>
<stop offset="0.8823" stop-color="#CE9F3C"/>
<stop offset="0.9434" stop-color="#AD7C1F"/>
<stop offset="1" stop-color="#895500"/>
</linearGradient>
<linearGradient id="paint1_linear_32525_800" x1="81" y1="173.232" x2="81" y2="73.9189" gradientUnits="userSpaceOnUse">
<stop offset="0.0274" stop-color="#FFF290"/>
<stop offset="0.1344" stop-color="#E2C669"/>
<stop offset="0.2525" stop-color="#C69B43"/>
<stop offset="0.3451" stop-color="#B4812C"/>
<stop offset="0.4" stop-color="#AE7723"/>
<stop offset="0.4694" stop-color="#B27C27"/>
<stop offset="0.5528" stop-color="#BF8B31"/>
<stop offset="0.6429" stop-color="#D4A342"/>
<stop offset="0.7188" stop-color="#EABD54"/>
<stop offset="0.8" stop-color="#EABD54"/>
<stop offset="0.8323" stop-color="#E3B54E"/>
<stop offset="0.8823" stop-color="#CE9F3C"/>
<stop offset="0.9434" stop-color="#AD7C1F"/>
<stop offset="1" stop-color="#895500"/>
</linearGradient>
<linearGradient id="paint2_linear_32525_800" x1="233.758" y1="132.5" x2="337.243" y2="132.5" gradientUnits="userSpaceOnUse">
<stop stop-color="#F1DD80"/>
<stop offset="0.2038" stop-color="#A57D24"/>
<stop offset="0.2676" stop-color="#A88128"/>
<stop offset="0.3291" stop-color="#B18C33"/>
<stop offset="0.3898" stop-color="#C1A045"/>
<stop offset="0.4495" stop-color="#D6BB5F"/>
<stop offset="0.5077" stop-color="#F1DD80"/>
<stop offset="0.5189" stop-color="#FBF2A8"/>
<stop offset="0.5934" stop-color="#F1DD80"/>
<stop offset="0.8428" stop-color="#A57D24"/>
<stop offset="0.944" stop-color="#D8BE62"/>
<stop offset="1" stop-color="#F1DD80"/>
</linearGradient>
<linearGradient id="paint3_linear_32525_800" x1="285.501" y1="140.999" x2="285.501" y2="124" gradientUnits="userSpaceOnUse">
<stop stop-color="#F1DD80"/>
<stop offset="0.2038" stop-color="#A57D24"/>
<stop offset="0.2787" stop-color="#C5A54B"/>
<stop offset="0.3493" stop-color="#DDC468"/>
<stop offset="0.4094" stop-color="#ECD67A"/>
<stop offset="0.4517" stop-color="#F1DD80"/>
<stop offset="0.5189" stop-color="#FBF2A8"/>
<stop offset="0.5934" stop-color="#F1DD80"/>
<stop offset="0.8428" stop-color="#A57D24"/>
<stop offset="0.944" stop-color="#D8BE62"/>
<stop offset="1" stop-color="#F1DD80"/>
</linearGradient>
<clipPath id="clip0_32525_800">
<rect width="105" height="17" fill="white" transform="translate(233 124)"/>
</clipPath>
</defs>
</svg>
