<svg width="1153" height="625" viewBox="0 0 1153 625" fill="none" xmlns="http://www.w3.org/2000/svg">
<rect width="1153" height="625" fill="white"/>
<path d="M33 36.25C33 35.8358 33.338 35.5 33.755 35.5H36.02C36.3664 35.5 36.6684 35.7342 36.7524 36.0681L37.3644 38.5H54.8948C55.121 38.5 55.3353 38.6007 55.4787 38.7745C55.6221 38.9483 55.6795 39.1768 55.6351 39.3971L54.1252 46.8971C54.0573 47.2339 53.7679 47.4819 53.4226 47.4991L39.2336 48.206L39.6665 50.5H52.6298C53.0468 50.5 53.3848 50.8358 53.3848 51.25C53.3848 51.6642 53.0468 52 52.6298 52H51.1198H40.5499H39.0399C38.6766 52 38.3648 51.7429 38.2979 51.3882L36.0371 39.4102L35.4305 37H33.755C33.338 37 33 36.6642 33 36.25ZM37.6847 40L38.9527 46.7181L52.7598 46.0302L53.9739 40H37.6847ZM40.5499 52C38.882 52 37.53 53.3431 37.53 55C37.53 56.6569 38.882 58 40.5499 58C42.2178 58 43.5699 56.6569 43.5699 55C43.5699 53.3431 42.2178 52 40.5499 52ZM51.1198 52C49.452 52 48.0999 53.3431 48.0999 55C48.0999 56.6569 49.452 58 51.1198 58C52.7877 58 54.1398 56.6569 54.1398 55C54.1398 53.3431 52.7877 52 51.1198 52ZM40.5499 53.5C41.3839 53.5 42.0599 54.1716 42.0599 55C42.0599 55.8284 41.3839 56.5 40.5499 56.5C39.716 56.5 39.0399 55.8284 39.0399 55C39.0399 54.1716 39.716 53.5 40.5499 53.5ZM51.1198 53.5C51.9538 53.5 52.6298 54.1716 52.6298 55C52.6298 55.8284 51.9538 56.5 51.1198 56.5C50.2859 56.5 49.6099 55.8284 49.6099 55C49.6099 54.1716 50.2859 53.5 51.1198 53.5Z" fill="black"/>
<path d="M109.594 58C111.251 58 112.594 56.6569 112.594 55H106.594C106.594 56.6569 107.937 58 109.594 58Z" fill="black"/>
<path d="M109.594 36.8774L108.398 37.1189C105.657 37.6724 103.594 40.0969 103.594 43C103.594 43.9417 103.392 46.2959 102.905 48.6132C102.664 49.7636 102.341 50.9614 101.911 52H117.277C116.847 50.9614 116.524 49.7636 116.282 48.6132C115.795 46.2959 115.594 43.9417 115.594 43C115.594 40.0969 113.531 37.6724 110.79 37.1189L109.594 36.8774ZM118.923 52C119.258 52.6711 119.646 53.2015 120.094 53.5H99.0938C99.5415 53.2015 99.9299 52.6711 100.265 52C101.613 49.2991 102.094 44.3187 102.094 43C102.094 39.369 104.674 36.3407 108.101 35.6486C108.096 35.5997 108.094 35.5501 108.094 35.5C108.094 34.6716 108.765 34 109.594 34C110.422 34 111.094 34.6716 111.094 35.5C111.094 35.5501 111.091 35.5997 111.086 35.6486C114.513 36.3406 117.094 39.369 117.094 43C117.094 44.3187 117.575 49.2991 118.923 52Z" fill="black"/>
<path d="M170.413 46.5C173.609 46.5 176.201 43.9256 176.201 40.75C176.201 37.5744 173.609 35 170.413 35C167.216 35 164.624 37.5744 164.624 40.75C164.624 43.9256 167.216 46.5 170.413 46.5ZM174.271 40.75C174.271 42.8671 172.544 44.5833 170.413 44.5833C168.281 44.5833 166.554 42.8671 166.554 40.75C166.554 38.6329 168.281 36.9167 170.413 36.9167C172.544 36.9167 174.271 38.6329 174.271 40.75Z" fill="black"/>
<path d="M181.989 56.0833C181.989 58 180.06 58 180.06 58H160.765C160.765 58 158.836 58 158.836 56.0833C158.836 54.1667 160.765 48.4167 170.413 48.4167C180.06 48.4167 181.989 54.1667 181.989 56.0833ZM180.06 56.0767C180.057 55.6037 179.763 54.1867 178.454 52.8865C177.196 51.6364 174.829 50.3333 170.412 50.3333C165.996 50.3333 163.629 51.6364 162.371 52.8865C161.062 54.1867 160.768 55.6037 160.765 56.0767H180.06Z" fill="black"/>
</svg>
